<?xml version="1.0" encoding="UTF-8"?>
<!DOCTYPE svg PUBLIC "-//W3C//DTD SVG 1.1//EN" "http://www.w3.org/Graphics/SVG/1.1/DTD/svg11.dtd">
<!-- Creator: CorelDRAW 2019 (64-Bit) -->
<svg xmlns="http://www.w3.org/2000/svg" xml:space="preserve" width="1026px" height="379px" version="1.1" style="shape-rendering:geometricPrecision; text-rendering:geometricPrecision; image-rendering:optimizeQuality; fill-rule:evenodd; clip-rule:evenodd"
viewBox="0 0 727.81 268.73"
 xmlns:xlink="http://www.w3.org/1999/xlink"
 xmlns:xodm="http://www.corel.com/coreldraw/odm/2003">
 <defs>
  <style type="text/css">
   <![CDATA[
    .fil1 {fill:black}
    .fil0 {fill:#3778C2}
    .fil2 {fill:#3778C2}
   ]]>
  </style>
 </defs>
 <g id="Layer_x0020_1">
  <metadata id="CorelCorpID_0Corel-Layer"/>
  <path class="fil0" d="M176.94 38.71l-167.34 0c-4.15,0 -7.71,2.67 -9.04,6.38 -0.31,0.8 -0.5,1.71 -0.55,2.72l0 0.01 -0.01 0.24 0 0.25 0 0 0 116.43 0 0.24 0 0c0.12,5.21 3.87,10.79 8.44,12.48l140.34 52.07c4.64,1.72 8.44,-1.19 8.44,-6.47l0 -48.73 19.72 0c5.28,0 9.6,-4.31 9.6,-9.59l0 -35.34 0.06 0.01c16.49,2.46 25.9,-10.28 38.85,-10.28 1.15,0 2.08,-0.93 2.08,-2.08l0 -38.19c0,-1.14 -0.93,-2.11 -2.08,-2.08 -17.56,0.41 -21.36,12.33 -38.91,10.3l0 -38.77c0,-5.28 -4.32,-9.6 -9.6,-9.6zm-131.02 17.03l120.38 0c1.77,0 3.21,1.44 3.21,3.21l0 95.15c0,1.76 -1.44,3.2 -3.21,3.2l-9.08 0 0 -50.67c0,-5.28 -3.8,-11.01 -8.44,-12.73l-102.86 -38.16zm64.66 87.39c4.78,0 8.66,5.7 8.66,12.73 0,7.03 -3.88,12.73 -8.66,12.73 -4.78,0 -8.66,-5.7 -8.66,-12.73 0,-7.03 3.88,-12.73 8.66,-12.73z"/>
  <path class="fil1" d="M625.95 122.11c2.29,0.57 6.85,1 8.99,1 11.84,-0.29 20.97,-3.71 26.1,-16.69l32.39 -80.17 -19.55 0 -17.97 47.93 -17.97 -47.93 -19.4 0 27.96 69.9 -2.57 5.84c-1.71,3.71 -4.85,5 -9.56,5 -1.71,0 -4.14,-0.43 -5.71,-1.14l-2.71 16.26zm80.19 -81.52l0 -11.65 4.17 0 0 -2.69 -11.44 0 0 2.69 4.2 0 0 11.65 3.07 0zm21.67 0l0 -14.34 -4.3 0 -3.48 8.66 -3.49 -8.66 -4.27 0 0 14.34 3.05 0 0 -10.04 4.04 10.04 1.33 0 4.04 -10.04 0 10.04 3.08 0zm-361.2 54.56l0 -95.15 -28.53 0 -23.11 57.49 -23.1 -57.49 -28.39 0 0 95.15 20.25 0 0 -66.62 26.82 66.62 8.85 0 26.82 -66.62 0 66.62 20.39 0zm50.36 1.71c22.82,0 36.52,-16.55 36.52,-36.23 0,-19.55 -13.7,-36.09 -36.52,-36.09 -22.68,0 -36.38,16.54 -36.38,36.09 0,19.68 13.7,36.23 36.38,36.23zm0 -16.12c-11.27,0 -17.55,-9.27 -17.55,-20.11 0,-10.7 6.28,-19.98 17.55,-19.98 11.27,0 17.69,9.28 17.69,19.98 0,10.84 -6.42,20.11 -17.69,20.11zm114.55 14.41l0 -48.64c0,-13.42 -7.28,-21.97 -22.4,-21.97 -11.27,0 -19.68,5.42 -24.1,10.69l0 -8.98 -18.12 0 0 68.9 18.12 0 0 -46.36c2.99,-4.14 8.55,-8.14 15.69,-8.14 7.7,0 12.69,3.29 12.69,12.84l0 41.66 18.12 0zm50.35 1.71c10.7,0 21.54,-3.28 28.39,-9.56l-7.99 -11.69c-4.42,4.28 -12.55,6.84 -18.4,6.84 -11.7,0 -18.69,-7.27 -19.83,-15.97l51.22 0 0 -4c0,-22.54 -13.99,-37.94 -34.53,-37.94 -20.97,0 -35.66,16.11 -35.66,36.09 0,22.11 15.83,36.23 36.8,36.23zm15.84 -42.65l-33.95 0c0.85,-6.85 5.7,-15.27 16.97,-15.27 11.99,0 16.55,8.71 16.98,15.27z"/>
  <path class="fil2" d="M264.36 105.68l357.23 0 -3.61 21.66 6.27 1.57c3.03,0.76 7.55,1.21 10.69,1.21 15.35,-0.37 26.1,-5.89 32.21,-20.13 3.22,2.97 5.24,7.22 5.24,11.92l0 130.59c0,8.93 -7.3,16.23 -16.23,16.23l-391.8 0c-8.92,0 -16.23,-7.3 -16.23,-16.23l0 -130.59c0,-8.93 7.31,-16.23 16.23,-16.23zm256.44 77.22l-22.11 0 0 -26.71 22.11 0c8.46,0 14.84,5.05 14.84,13.36 0,8.31 -6.38,13.35 -14.84,13.35zm-85.47 53.71l0 -80.42 28.79 0 0 -18.54 -78.93 0 0 18.54 28.93 0 0 80.42 21.21 0zm122.41 0l-22.25 -37.68c10.68,-2.53 21.66,-11.88 21.66,-29.38 0,-18.4 -12.61,-31.9 -33.24,-31.9l-46.29 0 0 98.96 21.07 0 0 -35.16 15.43 0 19.44 35.16 24.18 0zm78.2 0l0 -18.54 -41.84 0 0 -80.42 -21.07 0 0 98.96 62.91 0zm-298.68 1.78c21.81,0 34.27,-12.02 41.4,-24.33l-18.1 -8.76c-4.16,8.17 -13.06,14.4 -23.3,14.4 -17.95,0 -31.01,-13.8 -31.01,-32.5 0,-18.69 13.06,-32.49 31.01,-32.49 10.24,0 19.14,6.38 23.3,14.39l18.1 -8.9c-6.98,-12.32 -19.59,-24.19 -41.4,-24.19 -29.67,0 -52.67,20.78 -52.67,51.19 0,30.42 23,51.19 52.67,51.19z"/>
 </g>
</svg>
