<?xml version="1.0" encoding="UTF-8"?>
<!DOCTYPE svg PUBLIC "-//W3C//DTD SVG 1.1//EN" "http://www.w3.org/Graphics/SVG/1.1/DTD/svg11.dtd">
<!-- Creator: CorelDRAW 2019 (64-Bit) -->
<svg xmlns="http://www.w3.org/2000/svg" xml:space="preserve" width="761px" height="281px" version="1.1" style="shape-rendering:geometricPrecision; text-rendering:geometricPrecision; image-rendering:optimizeQuality; fill-rule:evenodd; clip-rule:evenodd"
viewBox="0 0 407.93 150.62"
 xmlns:xlink="http://www.w3.org/1999/xlink"
 xmlns:xodm="http://www.corel.com/coreldraw/odm/2003">
 <defs>
  <style type="text/css">
   <![CDATA[
    .fil0 {fill:white}
    .fil1 {fill:white;fill-opacity:0.501961}
   ]]>
  </style>
 </defs>
 <g id="Layer_x0020_1">
  <metadata id="CorelCorpID_0Corel-Layer"/>
  <path class="fil0" d="M99.17 21.7l-93.79 0c-2.33,0 -4.32,1.49 -5.07,3.57 -0.17,0.45 -0.28,0.96 -0.3,1.53l0 0 -0.01 0.14 0 0.13 0 0 0 65.26 0 0.14 0 0c0.07,2.92 2.17,6.05 4.73,7l78.66 29.18c2.6,0.96 4.73,-0.67 4.73,-3.63l0 -27.31 11.05 0c2.96,0 5.38,-2.42 5.38,-5.38l0 -19.8 0.03 0c9.25,1.38 14.52,-5.76 21.78,-5.76 0.64,0 1.17,-0.52 1.17,-1.17l0 -21.4c0,-0.64 -0.53,-1.18 -1.17,-1.17 -9.84,0.24 -11.97,6.91 -21.81,5.78l0 -21.74c0,-2.95 -2.42,-5.37 -5.38,-5.37zm-73.43 9.54l67.47 0c0.99,0 1.8,0.81 1.8,1.8l0 53.33c0,0.99 -0.81,1.79 -1.8,1.79l-5.09 0 0 -28.4c0,-2.95 -2.13,-6.16 -4.73,-7.13l-57.65 -21.39zm36.24 48.98c2.68,0 4.85,3.2 4.85,7.14 0,3.94 -2.17,7.13 -4.85,7.13 -2.68,0 -4.85,-3.19 -4.85,-7.13 0,-3.94 2.17,-7.14 4.85,-7.14z"/>
  <path class="fil1" d="M350.84 68.44c1.28,0.32 3.84,0.56 5.04,0.56 6.63,-0.16 11.75,-2.08 14.63,-9.35l18.15 -44.94 -10.96 0 -10.07 26.87 -10.07 -26.87 -10.88 0 15.67 39.18 -1.44 3.28c-0.96,2.08 -2.72,2.79 -5.35,2.79 -0.96,0 -2.32,-0.24 -3.2,-0.63l-1.52 9.11zm44.94 -45.69l0 -6.53 2.34 0 0 -1.51 -6.41 0 0 1.51 2.35 0 0 6.53 1.72 0zm12.15 0l0 -8.04 -2.41 0 -1.95 4.86 -1.96 -4.86 -2.39 0 0 8.04 1.71 0 0 -5.63 2.26 5.63 0.75 0 2.26 -5.63 0 5.63 1.73 0zm-202.45 30.58l0 -53.33 -15.99 0 -12.95 32.22 -12.95 -32.22 -15.91 0 0 53.33 11.35 0 0 -37.34 15.03 37.34 4.96 0 15.03 -37.34 0 37.34 11.43 0zm28.23 0.96c12.79,0 20.46,-9.28 20.46,-20.31 0,-10.95 -7.67,-20.23 -20.46,-20.23 -12.72,0 -20.39,9.28 -20.39,20.23 0,11.03 7.67,20.31 20.39,20.31zm0 -9.04c-6.32,0 -9.84,-5.19 -9.84,-11.27 0,-6 3.52,-11.19 9.84,-11.19 6.31,0 9.91,5.19 9.91,11.19 0,6.08 -3.6,11.27 -9.91,11.27zm64.2 8.08l0 -27.26c0,-7.52 -4.08,-12.32 -12.55,-12.32 -6.32,0 -11.04,3.04 -13.51,6l0 -5.04 -10.16 0 0 38.62 10.16 0 0 -25.99c1.67,-2.32 4.79,-4.55 8.79,-4.55 4.32,0 7.11,1.84 7.11,7.19l0 23.35 10.16 0zm28.22 0.96c6,0 12.08,-1.84 15.91,-5.36l-4.47 -6.55c-2.48,2.39 -7.04,3.83 -10.32,3.83 -6.55,0 -10.47,-4.07 -11.11,-8.95l28.7 0 0 -2.24c0,-12.63 -7.83,-21.27 -19.35,-21.27 -11.75,0 -19.99,9.04 -19.99,20.23 0,12.39 8.88,20.31 20.63,20.31zm8.88 -23.91l-19.03 0c0.48,-3.84 3.2,-8.55 9.51,-8.55 6.72,0 9.28,4.87 9.52,8.55z"/>
  <path class="fil0" d="M148.17 59.23l200.22 0 -2.02 12.14 3.51 0.88c1.71,0.43 4.24,0.68 6,0.68 8.6,-0.21 14.63,-3.3 18.05,-11.28 1.8,1.66 2.94,4.04 2.94,6.68l0 73.19c0,5.01 -4.1,9.1 -9.1,9.1l-219.6 0c-5,0 -9.09,-4.09 -9.09,-9.1l0 -73.19c0,-5.01 4.09,-9.1 9.09,-9.1zm143.73 43.28l-12.39 0 0 -14.97 12.39 0c4.74,0 8.32,2.83 8.32,7.49 0,4.66 -3.58,7.48 -8.32,7.48zm-47.9 30.11l0 -45.08 16.13 0 0 -10.39 -44.24 0 0 10.39 16.22 0 0 45.08 11.89 0zm68.61 0l-12.48 -21.13c5.99,-1.41 12.15,-6.65 12.15,-16.46 0,-10.31 -7.07,-17.88 -18.63,-17.88l-25.95 0 0 55.47 11.81 0 0 -19.71 8.65 0 10.89 19.71 13.56 0zm43.83 0l0 -10.4 -23.46 0 0 -45.07 -11.81 0 0 55.47 35.27 0zm-167.41 1c12.23,0 19.21,-6.74 23.2,-13.64l-10.14 -4.91c-2.33,4.57 -7.32,8.07 -13.06,8.07 -10.06,0 -17.38,-7.74 -17.38,-18.21 0,-10.48 7.32,-18.22 17.38,-18.22 5.74,0 10.73,3.58 13.06,8.07l10.14 -4.99c-3.91,-6.9 -10.97,-13.56 -23.2,-13.56 -16.63,0 -29.52,11.65 -29.52,28.7 0,17.04 12.89,28.69 29.52,28.69z"/>
 </g>
</svg>
